<svg xmlns="http://www.w3.org/2000/svg" width="40" height="40" viewBox="0 0 40 40"><defs><style>.a{fill:#fff;opacity:0;}.b{fill:none;stroke:#fff;stroke-linecap:round;stroke-linejoin:round;stroke-width:1.5px;}.b,.c{fill-rule:evenodd;}.c{fill:#00e2d8;stroke:#00e2d8;stroke-miterlimit:10;stroke-width:0.5px;}</style></defs><g transform="translate(-211.422 -2443.057)"><rect class="a" width="40" height="40" transform="translate(211.422 2443.057)"/><path class="b" d="M247.484,2469.5l0-5.6a1.2,1.2,0,0,0-1.2-1.2l-8.263,0"/><path class="b" d="M229.777,2468v4.827a1.2,1.2,0,0,0,1.2,1.2l8.142-.011,6.2,3.911-1.457-3.9,2.417,0a1.2,1.2,0,0,0,1.149-.841"/><path class="c" d="M219.058,2472.541a.466.466,0,0,1-.441-.607l1.347-4.145h-1.505a2.024,2.024,0,0,1-2.021-2.022v-10.906a2.024,2.024,0,0,1,2.021-2.021h17.918a2.023,2.023,0,0,1,2.022,2.021v10.907a2.024,2.024,0,0,1-2.022,2.022h-9.9l-7.164,4.676a.465.465,0,0,1-.253.076Zm-.6-18.774a1.1,1.1,0,0,0-1.094,1.094v10.907c0,1.917,3.127.618,3.612,1.285a.465.465,0,0,1,.066.416l-1.137,3.5,6.178-4.034a.462.462,0,0,1,.253-.075h10.04a1.1,1.1,0,0,0,1.1-1.094v-10.907a1.1,1.1,0,0,0-1.1-1.094Z"/><path class="c" d="M233.755,2457.724H221.082a.464.464,0,0,1,0-.927h12.673A.464.464,0,0,1,233.755,2457.724Z"/><path class="c" d="M233.755,2460.778H221.082a.464.464,0,0,1,0-.928h12.673A.464.464,0,0,1,233.755,2460.778Z"/><path class="c" d="M233.755,2463.832H221.082a.464.464,0,0,1,0-.928h12.673A.464.464,0,0,1,233.755,2463.832Z"/></g></svg>