<svg xmlns="http://www.w3.org/2000/svg" width="40" height="40" viewBox="0 0 40 40"><defs><style>.a,.b,.c{fill:none;stroke-linecap:round;stroke-linejoin:round;stroke-width:1.5px;}.a,.c{stroke:#00e2d8;}.b{stroke:#fff;}.c{fill-rule:evenodd;}</style></defs><g transform="translate(-48.252 -2380.512)"><path class="a" d="M74.9,2400.844a2.538,2.538,0,0,1-1.494.482H51.556A2.554,2.554,0,0,1,49,2398.772v-14.955a2.555,2.555,0,0,1,2.554-2.555H73.4a2.554,2.554,0,0,1,2.554,2.555V2396.4"/><line class="b" x2="7.741" transform="translate(64.517 2387.135)"/><line class="b" x2="7.741" transform="translate(64.517 2391.368)"/><line class="b" x2="7.741" transform="translate(64.541 2395.649)"/><path class="c" d="M62.079,2397.439v-.9c0-2.568-1.718-4.649-3.838-4.649H55.747c-2.119,0-3.838,2.081-3.838,4.649v.9Z"/><circle class="a" cx="2.865" cy="2.865" r="2.865" transform="translate(54.13 2385.072)"/></g></svg>