<svg xmlns="http://www.w3.org/2000/svg" width="40" height="40" viewBox="0 0 40 40"><defs><style>.a,.e{fill:#fff;}.a{opacity:0;}.b,.d{fill:none;}.b,.c,.f{stroke:#00e2d8;}.b,.c,.d{stroke-linecap:round;stroke-linejoin:round;stroke-width:1.5px;}.b{fill-rule:evenodd;}.c,.f{fill:#00e2d8;}.d{stroke:#fff;}.e{font-size:7.954px;font-family:Helvetica;}.f{stroke-miterlimit:10;stroke-width:0.5px;}</style></defs><g transform="translate(-295.425 -2371.146)"><rect class="a" width="40" height="40" transform="translate(295.425 2371.146)"/><path class="b" d="M327.46,2400.208a1.727,1.727,0,0,1-1.238.511l-14.71-.1-5.417,3.622,1.445-3.648-3.506-.022a1.759,1.759,0,0,1-1.734-1.782l.088-13.184a1.757,1.757,0,0,1,1.757-1.757l12.7.084"/><line class="c" x1="0.037" y2="5.542" transform="translate(328.002 2390.088)"/><circle class="d" cx="6.805" cy="6.805" r="6.805" transform="translate(316.923 2377.607)"/><text class="e" transform="translate(321.244 2387.245)"><tspan x="0" y="0">1</tspan></text><path class="f" d="M323.053,2395.108H306.859a.522.522,0,0,0,0,1.044h16.194a.522.522,0,0,0,0-1.044Z"/><path class="f" d="M306.859,2393.018H319.4a.523.523,0,1,0,0-1.045H306.859a.523.523,0,0,0,0,1.045Z"/><path class="f" d="M306.859,2389.884h7.314a.522.522,0,0,0,0-1.045h-7.314a.522.522,0,0,0,0,1.045Z"/></g></svg>