<svg xmlns="http://www.w3.org/2000/svg" width="40" height="40" viewBox="0 0 40 40"><defs><style>.a{fill:#fff;opacity:0;}.b,.c,.d{fill:none;stroke-linecap:round;stroke-linejoin:round;stroke-width:1.5px;}.b{stroke:#fff;}.c{stroke:#00e2d8;}.d{stroke:#707070;}</style></defs><g transform="translate(-295.208 -2442.862)"><rect class="a" width="40" height="40" transform="translate(295.208 2442.862)"/><path class="b" d="M326.75,2471.929l-8.924-7.19"/><path class="c" d="M303.822,2471.929l8.842-7.124"/><path class="c" d="M326.716,2471.987a2.775,2.775,0,0,1-.376.489,2.485,2.485,0,0,1-1.8.786h-18.67a2.475,2.475,0,0,1-1.722-.71,2.869,2.869,0,0,1-.72-1.14,3.059,3.059,0,0,1-.162-.984v-12.165a2.73,2.73,0,0,1,2.6-2.834h18.67a2.73,2.73,0,0,1,2.6,2.834v9.025"/><path class="c" d="M327.146,2458.654l-11.6,7.571a.659.659,0,0,1-.719,0l-11.562-7.57"/><path class="c" d="M327.146,2458.654l-11.6,7.571"/><path class="d" d="M317.826,2464.739"/><path class="d" d="M326.75,2471.929"/><path class="d" d="M312.664,2464.8"/><path class="d" d="M303.822,2471.929"/></g></svg>