<svg xmlns="http://www.w3.org/2000/svg" width="40" height="40" viewBox="0 0 40 40"><defs><style>.a{fill:#fff;opacity:0;}.b{fill:none;stroke:#00e2d8;stroke-linecap:round;stroke-linejoin:round;stroke-width:1.5px;}</style></defs><g transform="translate(-42.568 -2442.883)"><rect class="a" width="40" height="40" transform="translate(42.568 2442.883)"/><path class="b" d="M69.763,2473.955l-6.654-3.383a1.192,1.192,0,0,0-1.082,0l-6.654,3.383,1.161-7.374a1.194,1.194,0,0,0-.335-1.029l-5.273-5.283,7.371-1.174a1.2,1.2,0,0,0,.876-.636l3.394-6.648,3.395,6.648a1.2,1.2,0,0,0,.876.636l7.371,1.174-5.273,5.283a1.193,1.193,0,0,0-.334,1.029l.456,2.9"/></g></svg>