<svg xmlns="http://www.w3.org/2000/svg" width="40" height="40" viewBox="0 0 40 40"><defs><style>.a{fill:#fff;opacity:0;}.b,.c{fill:none;stroke-linecap:round;stroke-linejoin:round;}.b{stroke:#00e2d8;stroke-width:1.5px;}.c{stroke:#fff;stroke-width:2px;}</style></defs><g transform="translate(-126.63 -2371.175)"><rect class="a" width="40" height="40" transform="translate(126.63 2371.175)"/><path class="b" d="M155.124,2382.986h1.427a2.035,2.035,0,0,1,2.035,2.035v11.612"/><line class="b" x2="11.87" transform="translate(140.754 2382.986)"/><path class="b" d="M158.05,2401.049a2.03,2.03,0,0,1-1.5.659H136.71a2.035,2.035,0,0,1-2.035-2.035v-14.652a2.035,2.035,0,0,1,2.035-2.035h1.507"/><rect class="b" width="2.292" height="5.367" rx="1.146" transform="translate(138.297 2380.197)"/><rect class="b" width="2.292" height="5.367" rx="1.146" transform="translate(152.717 2380.197)"/><line class="b" x2="23.481" transform="translate(134.746 2389.155)"/><path class="c" d="M142.979,2395l2.724,2.9,5.492-5.579"/></g></svg>