<svg xmlns="http://www.w3.org/2000/svg" width="40" height="40" viewBox="0 0 40 40"><defs><style>.a{fill:#fff;opacity:0;}.b{fill:#009898;}.c{fill:#021235;stroke:#00e2d8;stroke-miterlimit:10;}.d{fill:#00e2d8;}</style></defs><g transform="translate(-150.492 -1971.906)"><rect class="a" width="40" height="40" transform="translate(150.492 1971.906)"/><path class="b" d="M183.388,2004.015l3.039,1.518a.591.591,0,0,0,.231.06.576.576,0,0,0,.576-.764l-.954-2.734C186.643,2000.958,182.7,2003.762,183.388,2004.015Z"/><ellipse class="b" cx="9.817" cy="8.642" rx="9.817" ry="8.642" transform="translate(169.535 1988.065)"/><path class="c" d="M166.014,1978.218c-7.842,0-14.2,5.6-14.2,12.5a11.705,11.705,0,0,0,3.9,8.589l-1.1,3.158a.83.83,0,0,0,.239.9.841.841,0,0,0,.929.118l3.512-1.754a15.683,15.683,0,0,0,6.72,1.488c7.842,0,14.2-5.6,14.2-12.5S173.856,1978.218,166.014,1978.218Z"/><circle class="d" cx="1.436" cy="1.436" r="1.436" transform="translate(164.822 1989.192)"/><circle class="d" cx="1.436" cy="1.436" r="1.436" transform="translate(170.446 1989.192)"/><circle class="d" cx="1.436" cy="1.436" r="1.436" transform="translate(159.198 1989.192)"/></g></svg>