<svg xmlns="http://www.w3.org/2000/svg" width="40" height="40" viewBox="0 0 40 40"><defs><style>.a{fill:#fff;opacity:0;}.b{fill:#021235;stroke:#00e2d8;stroke-linecap:round;stroke-linejoin:round;}.c{fill:#009898;stroke:#46b6a2;stroke-miterlimit:10;}</style></defs><g transform="translate(-262.073 -1971.906)"><rect class="a" width="40" height="40" transform="translate(262.073 1971.906)"/><path class="b" d="M282.069,2000.951l-14.42,0,.006-18.137,14.417,9.073Z"/><path class="b" d="M282.069,2001.04l14.42,0,.006-18.226-14.423,9.108Z"/><path class="b" d="M267.649,2000.99l28.841.01-1.4-1.594-7.914-8.978a3.016,3.016,0,0,0-2.31-1.075l-5.45.086a3.025,3.025,0,0,0-2.184,1.033l-8.263,9.074Z"/><path class="c" d="M296.023,2000.621"/><path class="c" d="M286.489,1990.939"/><path class="b" d="M296.055,1982.822a1.093,1.093,0,0,1,.014.33,1.9,1.9,0,0,1-.731,1.566l-12.165,9.7a1.89,1.89,0,0,1-2.548,0l-11.966-9.716a1.963,1.963,0,0,1-.613-1.645.9.9,0,0,1,0-.293Z"/></g></svg>