<svg xmlns="http://www.w3.org/2000/svg" width="40" height="40" viewBox="0 0 40 40"><defs><style>.a{fill:#fff;opacity:0;}.b{fill:#45d2be;}</style></defs><g transform="translate(-26.284 -1971.906)"><rect class="a" width="40" height="40" transform="translate(26.284 1971.906)"/><path class="b" d="M43.018,1989.976a.594.594,0,0,0-.067-.469,11.194,11.194,0,0,1-.976-2.236c-.062-.21-.118-.469-.185-.766a10.822,10.822,0,0,0-3.428-6.33,5.651,5.651,0,0,0-4.866-1.507,4.233,4.233,0,0,0-3.02,2.205c-1.927,3.965-.087,8.349,5.471,13.031a.614.614,0,0,0,.4.148.633.633,0,0,0,.315-.087l6.076-3.612A.627.627,0,0,0,43.018,1989.976Zm-6.607,2.7c-4.811-4.157-6.436-7.942-4.824-11.259a3.041,3.041,0,0,1,2.156-1.531,3.429,3.429,0,0,1,.716-.074,4.727,4.727,0,0,1,3.088,1.29,9.531,9.531,0,0,1,3.032,5.67c.074.333.136.623.2.852a12.579,12.579,0,0,0,.8,1.97Z"/><path class="b" d="M44.223,1991.94a.622.622,0,0,0-.846-.216l-5.855,3.483a.639.639,0,0,0-.284.376.6.6,0,0,0,.068.47l2.526,4.242a4.028,4.028,0,0,0,5.521,1.4,4.026,4.026,0,0,0,1.4-5.515Zm.494,8.7a2.785,2.785,0,0,1-3.823-.969l-2.211-3.712,4.8-2.853,2.211,3.712A2.8,2.8,0,0,1,44.717,2000.641Z"/><path class="b" d="M50.8,1991.153c.139.273.256.508.337.708a11.991,11.991,0,0,1,.654,2.349.616.616,0,0,0,.454.509.668.668,0,0,0,.245.014l6.993-1.024a.62.62,0,0,0,.519-.495c1.365-7.138.03-11.7-3.964-13.564a4.24,4.24,0,0,0-3.735.194,5.648,5.648,0,0,0-2.831,4.237A10.765,10.765,0,0,0,50.8,1991.153Zm2.071-10.215a3.187,3.187,0,0,1,2.252-.308,2.249,2.249,0,0,1,.391.141c3.339,1.554,4.468,5.522,3.353,11.781l-5.969.87a11.982,11.982,0,0,0-.615-2.032c-.1-.223-.223-.487-.379-.8a9.608,9.608,0,0,1-1.214-6.314A4.426,4.426,0,0,1,52.867,1980.938Z"/><path class="b" d="M52.445,1996.446a.6.6,0,0,0-.115.461l.714,4.888a4.026,4.026,0,0,0,7.968-1.163l-.714-4.888a.619.619,0,0,0-.244-.409.6.6,0,0,0-.462-.114l-6.74.987A.588.588,0,0,0,52.445,1996.446Zm6.714.085.626,4.276a2.792,2.792,0,0,1-5.525.809l-.626-4.277Z"/></g></svg>