<svg xmlns="http://www.w3.org/2000/svg" xmlns:xlink="http://www.w3.org/1999/xlink" width="103.775" height="24.284" viewBox="0 0 103.775 24.284"><defs><style>.a{fill:url(#a);}.b,.c{fill:#fff;}.b{font-size:16px;font-family:PingFangSC-Regular, PingFang SC;letter-spacing:0.02em;}</style><linearGradient id="a" y1="0.5" x2="1" y2="0.5" gradientUnits="objectBoundingBox"><stop offset="0.014" stop-color="#00a7c5"/><stop offset="1" stop-color="#00c089"/></linearGradient></defs><g transform="translate(-37.797 -473.271)"><rect class="a" width="73.496" height="8.187" rx="4.093" transform="translate(68.076 489.369)"/><text class="b" transform="translate(72.345 490.271)"><tspan x="0" y="0">热门活动</tspan></text><path class="c" d="M3290.848,4233.756H3287.3v-.272a.818.818,0,1,0-1.635,0v.272h-7.087v-.272a.818.818,0,1,0-1.635,0v.272h-3.543a1.919,1.919,0,0,0-1.908,1.908v16.353a1.918,1.918,0,0,0,1.908,1.908h17.443a1.919,1.919,0,0,0,1.908-1.908v-16.353A1.92,1.92,0,0,0,3290.848,4233.756Zm-17.443,1.636h3.543v.272a.818.818,0,1,0,1.635,0v-.272h7.087v.272a.818.818,0,1,0,1.635,0v-.272h3.543a.273.273,0,0,1,.273.272v3.543h-17.989v-3.543A.272.272,0,0,1,3273.405,4235.392Zm17.443,16.9h-17.443a.273.273,0,0,1-.273-.273v-11.174h17.989v11.174A.273.273,0,0,1,3290.848,4252.29Zm-1.363-3.543a.828.828,0,0,1-.817.817h-2.181a.817.817,0,0,1,0-1.635h2.181A.828.828,0,0,1,3289.485,4248.747Zm-5.451,0a.828.828,0,0,1-.817.817h-2.181a.817.817,0,0,1,0-1.635h2.181A.828.828,0,0,1,3284.034,4248.747Zm-5.451,0a.828.828,0,0,1-.817.817h-2.181a.817.817,0,1,1,0-1.635h2.181A.828.828,0,0,1,3278.583,4248.747Zm10.9-4.361a.827.827,0,0,1-.817.817h-2.181a.818.818,0,0,1,0-1.635h2.181A.829.829,0,0,1,3289.485,4244.386Zm-5.451,0a.827.827,0,0,1-.817.817h-2.181a.818.818,0,0,1,0-1.635h2.181A.829.829,0,0,1,3284.034,4244.386Zm-5.451,0a.827.827,0,0,1-.817.817h-2.181a.818.818,0,1,1,0-1.635h2.181A.829.829,0,0,1,3278.583,4244.386Z" transform="translate(-3233.7 -3757.503)"/></g></svg>