<svg xmlns="http://www.w3.org/2000/svg" width="25" height="25" viewBox="0 0 25 25"><defs><style>.a,.b{fill:#fff;}.a{opacity:0;}</style></defs><g transform="translate(-312.16 -5417.62)"><rect class="a" width="25" height="25" transform="translate(312.16 5417.62)"/><path class="b" d="M331.436,5422.729H330.2v-.616a.616.616,0,0,0-1.232,0v.616h-3.7v-.616a.616.616,0,0,0-1.232,0v.616h-3.7v-.616a.616.616,0,0,0-1.232,0v.616h-1.232a1.848,1.848,0,0,0-1.848,1.848V5436.9a1.848,1.848,0,0,0,1.848,1.848h13.551a1.847,1.847,0,0,0,1.847-1.848v-12.318A1.847,1.847,0,0,0,331.436,5422.729Zm.616,14.166a.617.617,0,0,1-.616.616H317.885a.617.617,0,0,1-.616-.616V5429.5h14.783Zm0-8.623H317.269v-3.695a.616.616,0,0,1,.616-.616h1.232v.616a.616.616,0,0,0,1.232,0v-.616h3.7v.616a.616.616,0,0,0,1.232,0v-.616h3.7v.616a.616.616,0,0,0,1.232,0v-.616h1.232a.616.616,0,0,1,.616.616Z"/><path class="b" d="M323.737,5435.663h1.847a.615.615,0,1,0,0-1.231h-1.847a.615.615,0,1,0,0,1.231Z"/><path class="b" d="M328.356,5435.663H330.2a.615.615,0,1,0,0-1.231h-1.848a.615.615,0,1,0,0,1.231Z"/><path class="b" d="M319.117,5435.663h1.848a.615.615,0,1,0,0-1.231h-1.848a.615.615,0,1,0,0,1.231Z"/><path class="b" d="M323.737,5432.584h1.847a.616.616,0,1,0,0-1.232h-1.847a.616.616,0,1,0,0,1.232Z"/><path class="b" d="M328.356,5432.584H330.2a.616.616,0,1,0,0-1.232h-1.848a.616.616,0,1,0,0,1.232Z"/><path class="b" d="M319.117,5432.584h1.848a.616.616,0,1,0,0-1.232h-1.848a.616.616,0,1,0,0,1.232Z"/></g></svg>