<svg xmlns="http://www.w3.org/2000/svg" xmlns:xlink="http://www.w3.org/1999/xlink" width="179.841" height="66.391" viewBox="0 0 179.841 66.391"><defs><style>.a{fill:#062d48;stroke:#707070;stroke-miterlimit:10;stroke-width:0.75px;}.b{fill:url(#a);}.c{fill:url(#b);}.d{fill:url(#c);}.e{fill:#00ffb5;font-size:13px;font-family:Helvetica;letter-spacing:0.05em;}.f{font-family:PingFangSC-Regular, PingFang SC;}.g{fill:#062c48;}</style><linearGradient id="a" x1="66.421" y1="0.5" x2="67.421" y2="0.5" gradientUnits="objectBoundingBox"><stop offset="0" stop-color="#00cfc5"/><stop offset="1" stop-color="#00ffa2"/></linearGradient><linearGradient id="b" x1="208.965" y1="0.5" x2="209.965" y2="0.5" xlink:href="#a"/><linearGradient id="c" x1="267.09" y1="0.5" x2="268.09" y2="0.5" xlink:href="#a"/></defs><g transform="translate(-3265.304 -3893.111)"><path class="a" d="M3424.475,3918.217h-54.109a10.6,10.6,0,0,0-10.6,10.6h0a10.6,10.6,0,0,0,10.6,10.6h41.555a9.621,9.621,0,0,0,4.293,6.206c1.117.679,2.368,1.122,3.462,1.838a6.74,6.74,0,0,1,2.777,3.341c.518,2.142,4.533,2.8,5.376,7.266.5-1.427,1-3.036.352-4.4-.405-.855-1.215-1.49-1.515-2.388-.451-1.348.373-2.893-.133-4.222-.431-1.13-1.661-1.707-2.48-2.6a5.645,5.645,0,0,1-1.3-3.968,9.619,9.619,0,0,1,.088-1.072h1.636a10.6,10.6,0,0,0,10.6-10.6h0A10.6,10.6,0,0,0,3424.475,3918.217Z"/><path class="b" d="M3427.829,3958.4h-.026a.333.333,0,0,1-.3-.271,7.747,7.747,0,0,0-3.363-4.854,4.865,4.865,0,0,1-2.01-2.4,6.4,6.4,0,0,0-2.635-3.141,16.03,16.03,0,0,0-1.814-.973c-.545-.263-1.108-.535-1.639-.859a9.995,9.995,0,0,1-4.386-6.156h11.481c-.028.256-.045.5-.05.745a5.272,5.272,0,0,0,1.214,3.734,8.4,8.4,0,0,0,.923.823,3.658,3.658,0,0,1,1.724,4.19,4.455,4.455,0,0,0,.037,1.927,4.362,4.362,0,0,0,.759,1.232,6.184,6.184,0,0,1,.741,1.119c.689,1.454.21,3.1-.339,4.657A.333.333,0,0,1,3427.829,3958.4Zm-15.581-19.053a9.329,9.329,0,0,0,4.14,5.988c.5.307,1.051.572,1.582.828a16.62,16.62,0,0,1,1.889,1.016,6.974,6.974,0,0,1,2.919,3.543c.182.752.921,1.345,1.777,2.031a8.973,8.973,0,0,1,3.307,4.134,4.374,4.374,0,0,0,.017-3.081,5.624,5.624,0,0,0-.666-1,4.928,4.928,0,0,1-.864-1.43,5,5,0,0,1-.066-2.219,4.217,4.217,0,0,0-.063-1.99,4.15,4.15,0,0,0-1.419-1.6,9.277,9.277,0,0,1-.994-.89,5.941,5.941,0,0,1-1.391-4.2,9.992,9.992,0,0,1,.092-1.109C3422.531,3939.2,3412.216,3939.188,3412.248,3939.343Z"/><rect class="a" width="167.111" height="46.356" rx="13.463" transform="translate(3277.66 3893.486)"/><path class="c" d="M3273.744,3944.441a.334.334,0,0,1-.14-.031,8.867,8.867,0,0,1-4.979-6.577.334.334,0,1,1,.66-.106,8.3,8.3,0,0,0,4.6,6.076.334.334,0,0,1-.141.638Z"/><path class="d" d="M3269.24,3946.263a.346.346,0,0,1-.09-.012,9.208,9.208,0,0,1-3.738-2.09.334.334,0,0,1,.453-.491,8.535,8.535,0,0,0,3.466,1.937.334.334,0,0,1-.091.656Z"/><text class="e" transform="translate(3300.481 3921.406)"><tspan x="0" y="0">hi</tspan><tspan class="f" y="0">～</tspan><tspan y="0"> </tspan><tspan class="f" y="0">有什么可以帮您</tspan></text><path class="g" d="M3422.363,3940.731l-9.778-.167-.819-2.417,10.8.1Z"/></g></svg>