<svg xmlns="http://www.w3.org/2000/svg" xmlns:xlink="http://www.w3.org/1999/xlink" width="112.821" height="35" viewBox="0 0 112.821 35"><defs><style>.a,.f{fill:none;}.b{fill:url(#a);}.c,.d,.g{fill:#fff;}.c{font-size:16px;font-family:PingFangSC-Regular, PingFang SC;letter-spacing:0.02em;}.d{opacity:0;}.e{clip-path:url(#b);}.f{stroke:#fff;stroke-linecap:round;stroke-linejoin:round;stroke-width:1.5px;}</style><linearGradient id="a" y1="0.5" x2="1" y2="0.5" gradientUnits="objectBoundingBox"><stop offset="0.014" stop-color="#00a7c5"/><stop offset="1" stop-color="#00c089"/></linearGradient><clipPath id="b"><rect class="a" width="25.256" height="25.256" transform="translate(3269.322 4012.271)"/></clipPath></defs><g transform="translate(-3264.45 -4007.399)"><rect class="b" width="73.496" height="8.187" rx="4.093" transform="translate(3303.776 4028.172)"/><text class="c" transform="translate(3308.046 4029.074)"><tspan x="0" y="0">猜你想问</tspan></text><rect class="d" width="35" height="35" transform="translate(3264.45 4007.399)"/><g class="e"><path class="f" d="M3288.571,4026.823a8.373,8.373,0,0,0,1.37-4.581c0-4.962-4.394-8.984-9.816-8.984s-9.816,4.022-9.816,8.984a8.479,8.479,0,0,0,2.072,5.522l-2.072,5.126,5.674-2.5a10.643,10.643,0,0,0,8.9-.285"/><path class="f" d="M3290.089,4022.053a7.037,7.037,0,0,1,3.5,5.98,6.779,6.779,0,0,1-1.656,4.412l1.656,4.1-4.534-2a8.428,8.428,0,0,1-3.31.669"/><path class="f" d="M3285.748,4035.209a7.933,7.933,0,0,1-7.058-4.045"/><path class="g" d="M3280.175,4026.044h0a.942.942,0,1,0,.942.942.943.943,0,0,0-.942-.942"/><path class="f" d="M3277.412,4019.966a2.713,2.713,0,0,1,5.426,0h0a2.713,2.713,0,0,1-1.649,2.5,1.772,1.772,0,0,0-1.064,1.633v.063"/></g></g></svg>