<?xml version="1.0" standalone="no"?><!DOCTYPE svg PUBLIC "-//W3C//DTD SVG 1.1//EN" "http://www.w3.org/Graphics/SVG/1.1/DTD/svg11.dtd"><svg t="1733218275799" class="icon" viewBox="0 0 1024 1024" version="1.1" xmlns="http://www.w3.org/2000/svg" p-id="2412" xmlns:xlink="http://www.w3.org/1999/xlink" width="32" height="32"><path d="M512 32c265.104 0 480 214.896 480 480 0 265.104-214.896 480-480 480C246.896 992 32 777.104 32 512 32 246.896 246.896 32 512 32z m0 48C273.408 80 80 273.408 80 512s193.408 432 432 432 432-193.408 432-432S750.592 80 512 80z m0 120c172.32 0 312 139.68 312 312S684.32 824 512 824 200 684.32 200 512 339.68 200 512 200z" fill="#00f9b2" p-id="2413"></path></svg>