<?xml version="1.0" standalone="no"?><!DOCTYPE svg PUBLIC "-//W3C//DTD SVG 1.1//EN" "http://www.w3.org/Graphics/SVG/1.1/DTD/svg11.dtd"><svg t="1732869886647" class="icon" viewBox="0 0 1024 1024" version="1.1" xmlns="http://www.w3.org/2000/svg" fill="#fff" p-id="2964" xmlns:xlink="http://www.w3.org/1999/xlink" width="32" height="32"><path d="M558.08151703 1012.11913482H177.57221925c-42.9382163-0.6432237-85.5366163-19.04184889-116.87253333-50.4505837-32.29468445-32.36750222-50.07435852-74.85667555-50.07435851-119.6153363V172.93065482c0-45.15915852 17.97385482-87.73328592 50.62049184-119.89447112 31.60291555-31.1296 74.29840592-48.64227555 117.15166816-48.08400592h654.99591111c0.80099555-0.0121363 1.60199111-0.0121363 2.39085037-0.01213629 49.69813333 0 95.35488 18.09521778 128.81464889 51.13021629 31.61505185 31.21455408 49.01850075 72.70855111 49.01850074 116.86039704v401.7478163c0 20.10984297-16.29904592 36.40888889-36.40888889 36.40888888s-36.40888889-16.29904592-36.40888888-36.40888888V172.93065482c0-24.51531852-9.72117333-47.61069037-27.36734816-65.03841185-20.07343408-19.81857185-48.26605037-30.51064889-79.34710518-30.12228741H177.57221925c-23.6050963-0.3398163-47.36796445 9.53912889-65.24472888 27.14889481-18.64135111 18.3622163-28.89652148 42.51344592-28.89652148 68.01180445v669.12256c0 51.85839408 43.47221333 96.33792 94.99079111 97.26027852h379.65975703c20.10984297 0 36.40888889 16.29904592 36.40888889 36.40888888s-16.29904592 36.39675259-36.40888889 36.3967526z" p-id="2965"></path><path d="M741.49736297 309.37903408h-476.95644445c-20.10984297 0-36.40888889-16.29904592-36.40888889-36.40888889s16.29904592-36.40888889 36.40888889-36.40888889h476.95644445c20.10984297 0 36.40888889 16.29904592 36.40888888 36.40888889s-16.29904592 36.40888889-36.40888888 36.40888889zM551.16382815 531.13344H264.54091852c-20.10984297 0-36.40888889-16.29904592-36.40888889-36.40888888s16.29904592-36.40888889 36.40888889-36.4088889h286.62290963c20.10984297 0 36.40888889 16.29904592 36.40888888 36.4088889s-16.29904592 36.40888889-36.40888888 36.40888888zM444.8377363 750.86108445H264.54091852c-20.10984297 0-36.40888889-16.29904592-36.40888889-36.40888889s16.29904592-36.40888889 36.40888889-36.40888889h180.29681778c20.10984297 0 36.40888889 16.29904592 36.40888888 36.40888889s-16.29904592 36.40888889-36.40888888 36.40888889z" p-id="2966"></path><path d="M754.44679111 946.07341037c-118.46238815 0-214.82458075-96.37432889-214.82458074-214.82458073s96.37432889-214.82458075 214.82458074-214.82458075 214.82458075 96.37432889 214.82458074 214.82458075-96.36219259 214.82458075-214.82458074 214.82458073z m0-356.8313837c-78.3033837 0-142.00680297 63.70341925-142.00680296 142.00680297s63.70341925 142.00680297 142.00680296 142.00680295 142.00680297-63.70341925 142.00680297-142.00680295-63.70341925-142.00680297-142.00680297-142.00680297z" p-id="2967"></path><path d="M942.26811259 1010.01955556c-9.92749037 0-20.15838815-4.06565925-28.02270814-13.48342519l-0.3155437-0.37622518c-0.0121363-0.02427259-0.03640889-0.03640889-0.0485452-0.06068149l-77.21111703-94.97865481c-0.02427259-0.02427259-0.03640889-0.04854518-0.06068149-0.07281777l-0.32768-0.41263408c-14.13878518-17.91317333-8.49540741-40.04977778 5.2671526-51.23944296 13.45915259-10.94693925 35.80207408-12.65815703 51.22730667 5.31569777l0.01213629-0.01213629a57.70808889 57.70808889 0 0 0 0.77672296 0.9709037c0.02427259 0.03640889 0.06068148 0.07281778 0.08495408 0.10922666 8.14345482 10.01244445 70.12352 86.26479408 76.54362074 94.16552297 0.0121363 0.02427259 0.03640889 0.04854518 0.04854518 0.06068148 0.02427259 0.02427259 0.03640889 0.04854518 0.06068148 0.07281778 0.25486222 0.3155437 0.40049778 0.48545185 0.42477038 0.52186074 14.09024 17.96171852 8.47113482 40.06191408-5.26715259 51.22730667-6.35941925 5.19433482-14.66064592 8.192-23.19246223 8.192z" p-id="2968"></path></svg>