<?xml version="1.0" standalone="no"?><!DOCTYPE svg PUBLIC "-//W3C//DTD SVG 1.1//EN" "http://www.w3.org/Graphics/SVG/1.1/DTD/svg11.dtd"><svg t="1733121175956" class="icon" viewBox="0 0 1024 1024" version="1.1" xmlns="http://www.w3.org/2000/svg" p-id="1842" xmlns:xlink="http://www.w3.org/1999/xlink" width="32" height="32"><path d="M562.38193444 829.54169384L1000.88437638 387.03136924c23.36595591-23.60642886 23.2056406-61.64123533-0.40078827-85.00719125-23.56635005-23.36595591-61.64123533-23.2056406-85.00719124 0.40078827l-396.49983164 400.10692605-402.11086739-398.50377297c-23.56635005-23.36595591-61.64123533-23.2056406-85.00719124 0.40078826-11.62285972 11.70301736-17.43428958 27.01312913-17.43428958 42.32324089 0 15.47042706 5.93166634 30.94085415 17.79499903 42.68395036l442.5103246 438.50244192c0.64126123 0.64126123 1.56307425 0.84165535 2.24441429 1.48291659 0.16031531 0.16031531 0.20039414 0.36070943 0.36070945 0.52102476C500.94109325 853.26835919 539.01597852 853.14812272 562.38193444 829.54169384z" fill="#00f9b2" p-id="1843"></path></svg>