<?xml version="1.0" standalone="no"?><!DOCTYPE svg PUBLIC "-//W3C//DTD SVG 1.1//EN" "http://www.w3.org/Graphics/SVG/1.1/DTD/svg11.dtd"><svg t="1733367962709" class="icon" viewBox="0 0 1024 1024" version="1.1" xmlns="http://www.w3.org/2000/svg" p-id="2087" xmlns:xlink="http://www.w3.org/1999/xlink" width="32" height="32"><path d="M791.16717867 955.96189984l-54.88842312 54.88842312a6.47269095 6.47269095 0 0 1-9.19122132 1e-8l-494.25471291-494.2547117a6.47269095 6.47269095 0 0 1 0-9.19122254l494.25471291-494.2547117a6.47269095 6.47269095 0 0 1 9.19122132 1e-8l54.88842312 54.88842312a6.47269095 6.47269095 0 0 1 1e-8 9.19122132l-430.17506846 430.17506725a6.47269095 6.47269095 0 0 0 0 9.19122254L791.16717868 946.77067852a6.47269095 6.47269095 0 0 1-1e-8 9.19122132z" fill="#DFDFDF" p-id="2088"></path></svg>