<?xml version="1.0" standalone="no"?><!DOCTYPE svg PUBLIC "-//W3C//DTD SVG 1.1//EN" "http://www.w3.org/Graphics/SVG/1.1/DTD/svg11.dtd"><svg t="1733302291392" class="icon" viewBox="0 0 1110 1024" version="1.1" xmlns="http://www.w3.org/2000/svg" p-id="2409" xmlns:xlink="http://www.w3.org/1999/xlink" width="34.6875" height="32"><path d="M881.557485 1023.657399C877.514794 1023.657399 873.437843 1022.732376 869.737752 1020.848071L554.510612 860.305263 239.283472 1020.848071C230.752708 1025.199103 220.371899 1024.479641 212.560597 1018.963766 204.749295 1013.482151 200.843644 1004.163405 202.488129 994.947439L262.683117 654.847469 7.650965 413.998996C0.730425 407.455318-1.736302 397.691191 1.244327 388.817826 4.224955 379.910201 12.173297 373.435043 21.731864 372.064639L374.131208 322.456021 531.761908 13.018836C540.292672-3.768611 568.728552-3.768611 577.259315 13.018836L734.890016 322.456021 1087.28936 372.064639C1096.847927 373.435043 1104.796269 379.910201 1107.776897 388.817826 1110.757526 397.691191 1108.290799 407.455318 1101.370259 413.998996L846.338107 654.847469 906.567355 994.947439C908.17758 1004.163405 904.271929 1013.482151 896.460627 1018.963766 892.041075 1022.081435 886.79928 1023.657399 881.557485 1023.657399ZM554.510612 807.921576C558.587563 807.921576 562.630255 808.880859 566.296085 810.765164L847.845551 954.143665 794.091461 650.393657C792.652537 642.445314 795.393345 634.291412 801.354601 628.672756L1029.115717 413.553615 714.402479 369.255311C706.111535 368.090468 698.985435 363.054234 695.285345 355.791094L554.510612 79.449162 413.735879 355.791094C410.035788 363.054234 402.909689 368.090468 394.618745 369.255311L79.905506 413.553615 307.666623 628.672756C313.627879 634.291412 316.368687 642.445314 314.929763 650.393657L261.175673 954.143665 542.725139 810.765164C546.425229 808.880859 550.433661 807.921576 554.510612 807.921576Z" fill="#00e5d8" p-id="2410"></path></svg>