<svg xmlns="http://www.w3.org/2000/svg" width="35" height="35" viewBox="0 0 35 35"><defs><style>.a{fill:#fff;opacity:0;}.b{fill:#00ffb0;}.c{fill:#050a23;}</style></defs><g transform="translate(-3810.15 -6424.093)"><rect class="a" width="35" height="35" transform="translate(3810.15 6424.093)"/><circle class="b" cx="15.185" cy="15.185" r="15.185" transform="translate(3812.464 6426.408)"/><path class="c" d="M3833.857,6433.039l-14.894,5.855a1.61,1.61,0,0,0,.244,3.071l6.4,1.411,1.411,6.4a1.6,1.6,0,0,0,1.445,1.26c.044,0,.088,0,.13,0a1.6,1.6,0,0,0,1.5-1.021l5.855-14.893a1.609,1.609,0,0,0-2.087-2.087Zm-5.239,16.054-1.356-6.146a1.616,1.616,0,0,0-1.226-1.226l-6.146-1.355,14.381-5.654Z"/></g></svg>