<svg xmlns="http://www.w3.org/2000/svg" width="35" height="35" viewBox="0 0 35 35"><defs><style>.a,.b{fill:#fff;}.a{opacity:0;}</style></defs><g transform="translate(-17.263 -1782.522)"><rect class="a" width="35" height="35" transform="translate(17.263 1782.522)"/><path class="b" d="M42.588,1790.377h3.021a.855.855,0,0,1,.855.855v2.653a.855.855,0,0,0,1.71,0v-2.653a2.568,2.568,0,0,0-2.565-2.565H42.588a.855.855,0,1,0,0,1.71Z"/><path class="b" d="M33.338,1788.667H30.317a2.567,2.567,0,0,0-2.565,2.565v2.653a.855.855,0,0,0,1.71,0v-2.653a.855.855,0,0,1,.855-.855h3.021a.855.855,0,1,0,0-1.71Z"/><path class="b" d="M33.338,1807.379H30.317a.855.855,0,0,1-.855-.855v-2.654a.855.855,0,0,0-1.71,0v2.654a2.568,2.568,0,0,0,2.565,2.565h3.021a.855.855,0,1,0,0-1.71Z"/><path class="b" d="M33.338,1794.075a.855.855,0,0,0-.855.855v7.787a.855.855,0,0,0,1.71,0v-7.787a.855.855,0,0,0-.855-.855Z"/><path class="b" d="M42.588,1797.814a.855.855,0,0,0,.855-.855v-2.029a.855.855,0,1,0-1.71,0v2.029A.855.855,0,0,0,42.588,1797.814Z"/><path class="b" d="M36.421,1794.075a.855.855,0,0,0-.855.855v4.942a.855.855,0,1,0,1.71,0v-4.942a.855.855,0,0,0-.855-.855Z"/><path class="b" d="M39.505,1799.206a.855.855,0,0,0,.855-.855v-3.421a.855.855,0,1,0-1.71,0v3.421A.855.855,0,0,0,39.505,1799.206Z"/><path class="b" d="M36.421,1801.947a.855.855,0,0,0-.855.855v.023a.855.855,0,1,0,1.71,0v-.023A.855.855,0,0,0,36.421,1801.947Z"/><path class="b" d="M49.908,1809.618l-1.77-1.77a5.341,5.341,0,1,0-1.21,1.209l1.771,1.77a.855.855,0,0,0,1.209-1.209Zm-9.714-4.884a3.621,3.621,0,1,1,3.62,3.62A3.624,3.624,0,0,1,40.194,1804.734Z"/></g></svg>