<svg xmlns="http://www.w3.org/2000/svg" xmlns:xlink="http://www.w3.org/1999/xlink" width="35" height="35" viewBox="0 0 35 35"><defs><style>.a{fill:#fff;opacity:0;}.b,.c{fill-rule:evenodd;}.b{fill:url(#a);}.c{fill:#0c3c53;}</style><linearGradient id="a" x1="0.5" y1="1" x2="0.5" gradientUnits="objectBoundingBox"><stop offset="0.014" stop-color="#00a6c4"/><stop offset="1" stop-color="#00bf88"/></linearGradient></defs><g transform="translate(-75.677 -351.22)"><rect class="a" width="35" height="35" transform="translate(75.677 351.22)"/><path class="b" d="M5543.524,5666.909h-17.1a2.129,2.129,0,0,0-2.127,2.127v10.979a2.129,2.129,0,0,0,2.127,2.127h17.1a2.129,2.129,0,0,0,2.127-2.127v-10.979A2.129,2.129,0,0,0,5543.524,5666.909Z" transform="translate(-5441.796 -5305.806)"/><path class="c" d="M5538.023,5674.348l6.293,5.229v-10.457l-6.293,5.229Z" transform="translate(-5441.796 -5305.806)"/><path class="c" d="M5532.967,5675.215l-6.515,5.414H5543.5l-6.516-5.414-.646.537a2.126,2.126,0,0,1-2.719,0l-.646-.537Z" transform="translate(-5441.796 -5305.806)"/><path class="c" d="M5531.923,5674.348l-6.293-5.229v10.458l6.293-5.229Z" transform="translate(-5441.796 -5305.806)"/><path class="c" d="M5535.48,5674.726l8.015-6.66h-17.043l8.015,6.66a.785.785,0,0,0,1.013,0Z" transform="translate(-5441.796 -5305.806)"/></g></svg>