<svg xmlns="http://www.w3.org/2000/svg" width="35" height="35" viewBox="0 0 35 35"><defs><style>.a,.b{fill:#fff;}.a{opacity:0;}</style></defs><g transform="translate(-4348.678 -6056.093)"><rect class="a" width="35" height="35" transform="translate(4348.678 6056.093)"/><path class="b" d="M4373.035,6064.649l-14.893,5.855a1.611,1.611,0,0,0,.243,3.071l6.4,1.411,1.412,6.4a1.6,1.6,0,0,0,1.444,1.26c.044,0,.088,0,.131,0a1.6,1.6,0,0,0,1.5-1.021l5.855-14.893a1.609,1.609,0,0,0-2.088-2.087ZM4367.8,6080.7l-1.357-6.146a1.615,1.615,0,0,0-1.226-1.226l-6.146-1.355,14.382-5.654Z"/></g></svg>